<svg xmlns="http://www.w3.org/2000/svg" viewBox="0 0 32 32" width="32" height="32">
  <rect width="32" height="32" fill="#1e40af" rx="4"/>
  <rect x="4" y="8" width="24" height="20" fill="#ffffff" rx="2"/>
  <rect x="6" y="10" width="4" height="4" fill="#1e40af" rx="1"/>
  <rect x="12" y="10" width="4" height="4" fill="#1e40af" rx="1"/>
  <rect x="18" y="10" width="4" height="4" fill="#1e40af" rx="1"/>
  <rect x="24" y="10" width="4" height="4" fill="#1e40af" rx="1"/>
  <rect x="6" y="16" width="4" height="4" fill="#1e40af" rx="1"/>
  <rect x="12" y="16" width="4" height="4" fill="#1e40af" rx="1"/>
  <rect x="18" y="16" width="4" height="4" fill="#1e40af" rx="1"/>
  <rect x="24" y="16" width="4" height="4" fill="#1e40af" rx="1"/>
  <rect x="6" y="22" width="4" height="4" fill="#1e40af" rx="1"/>
  <rect x="12" y="22" width="4" height="4" fill="#1e40af" rx="1"/>
  <rect x="18" y="22" width="4" height="4" fill="#1e40af" rx="1"/>
  <rect x="24" y="22" width="4" height="4" fill="#1e40af" rx="1"/>
  <rect x="8" y="4" width="16" height="6" fill="#ffffff" rx="3"/>
  <rect x="10" y="6" width="2" height="2" fill="#1e40af" rx="1"/>
  <rect x="14" y="6" width="2" height="2" fill="#1e40af" rx="1"/>
  <rect x="18" y="6" width="2" height="2" fill="#1e40af" rx="1"/>
</svg> 